<svg id="Capa_1" enable-background="new 0 0 512 512" height="512" viewBox="0 0 512 512" width="512" xmlns="http://www.w3.org/2000/svg"><g><g id="XMLID_1258_"><path id="XMLID_1280_" d="m452.375 296.327c-1.432 0-2.887-.207-4.327-.643l-38.645-11.687c-1.656-.501-3.213-1.286-4.6-2.319l-43.744-32.602c-5.042-3.758-7.188-10.272-5.368-16.291l26.059-86.168c1.82-6.019 7.217-10.252 13.497-10.586l54.478-2.896c1.724-.09 3.457.118 5.113.618l38.646 11.687c3.79 1.146 6.969 3.751 8.838 7.241 1.87 3.49 2.276 7.58 1.129 11.37l-36.795 121.666c-1.948 6.45-7.873 10.61-14.281 10.61z" fill="#046eff"/></g><g><path id="XMLID_1028_" d="m503.453 164.05c1.147-3.79.741-7.88-1.129-11.37-1.869-3.491-5.048-6.095-8.838-7.241l-38.646-11.687c-1.656-.501-3.389-.708-5.113-.618l-54.478 2.896c-6.279.334-11.676 4.567-13.497 10.586l-13.326 44.063 116.335 35.181z" fill="#0051bf"/></g><g id="XMLID_1257_"><path id="XMLID_1278_" d="m77.802 435.78c-6.251 0-12.075-3.956-14.16-10.212-2.607-7.821 1.62-16.275 9.442-18.883l141.325-47.108v-128.888c0-8.245 6.684-14.928 14.928-14.928s14.928 6.684 14.928 14.928v139.648c0 6.426-4.112 12.13-10.208 14.162l-151.533 50.512c-1.566.521-3.158.769-4.722.769z" fill="#046eff"/></g><g id="XMLID_1259_"><path id="XMLID_1281_" d="m361.046 281.578c-1.451 0-2.907-.211-4.321-.639l-288.515-87.253c-13.882-4.199-25.299-13.552-32.146-26.336-6.848-12.785-8.307-27.471-4.108-41.353l21.134-69.888c4.198-13.882 13.551-25.299 26.336-32.147s27.472-8.306 41.353-4.109l288.515 87.253c7.892 2.386 12.355 10.719 9.968 18.61l-43.927 145.255c-1.146 3.789-3.751 6.969-7.241 8.838-2.188 1.172-4.611 1.769-7.048 1.769z" fill="#e8edf5"/></g><g id="XMLID_1256_"><path id="XMLID_1262_" d="m22.836 512c-3.014 0-6.001-.913-8.541-2.684-4.002-2.792-6.388-7.364-6.388-12.244v-161.933c0-4.88 2.386-9.453 6.388-12.244 4.002-2.792 9.118-3.451 13.698-1.764l54.103 19.92c5.87 2.161 9.77 7.753 9.77 14.009v122.092c0 6.256-3.9 11.847-9.77 14.009l-54.103 19.92c-1.673.616-3.42.919-5.157.919zm54.103-34.849h.01z" fill="#0051bf"/></g><path id="XMLID_1251_" d="m422.951 96.689-311.978-94.348c-13.829-4.182-28.461-2.729-41.2 4.093-12.738 6.822-22.056 18.197-26.238 32.028l-24.331 80.455c-2.387 7.892 2.076 16.224 9.968 18.611l176.904 53.5c22.56 6.822 46.429-5.316 54.39-27.209l87.862 26.571c5.67 1.714 11.462 2.564 17.223 2.564 9.627 0 19.165-2.373 27.89-7.046 13.948-7.47 24.151-19.925 28.731-35.07l10.747-35.539c2.386-7.891-2.077-16.223-9.968-18.61z" fill="#bdc4d3"/></g></svg>